<mxfile host="app.diagrams.net" modified="2022-01-07T05:41:08.081Z" agent="5.0 (Windows NT 10.0; Win64; x64) AppleWebKit/537.36 (KHTML, like Gecko) Chrome/96.0.4664.110 Safari/537.36" etag="SdD7sW2YWM5IyDNlfMpD" version="15.5.0" type="github">
  <diagram id="AXm_I2ttIVFIWqhGo-dT" name="Page-1">
    <mxGraphModel dx="782" dy="436" grid="1" gridSize="10" guides="1" tooltips="1" connect="1" arrows="1" fold="1" page="1" pageScale="1" pageWidth="850" pageHeight="1100" math="0" shadow="0">
      <root>
        <mxCell id="0" />
        <mxCell id="1" parent="0" />
        <mxCell id="MDjKrCd_UHIQp9SryKAu-22" style="edgeStyle=orthogonalEdgeStyle;rounded=0;orthogonalLoop=1;jettySize=auto;html=1;entryX=0.112;entryY=0.99;entryDx=0;entryDy=0;entryPerimeter=0;fontSize=20;" edge="1" parent="1" source="MDjKrCd_UHIQp9SryKAu-5" target="MDjKrCd_UHIQp9SryKAu-18">
          <mxGeometry relative="1" as="geometry" />
        </mxCell>
        <mxCell id="MDjKrCd_UHIQp9SryKAu-32" style="edgeStyle=orthogonalEdgeStyle;rounded=0;orthogonalLoop=1;jettySize=auto;html=1;entryX=0.5;entryY=0;entryDx=0;entryDy=0;fontSize=14;" edge="1" parent="1" source="MDjKrCd_UHIQp9SryKAu-5" target="MDjKrCd_UHIQp9SryKAu-30">
          <mxGeometry relative="1" as="geometry" />
        </mxCell>
        <mxCell id="MDjKrCd_UHIQp9SryKAu-5" value="Product Owner Team" style="shape=umlActor;verticalLabelPosition=bottom;verticalAlign=top;html=1;outlineConnect=0;" vertex="1" parent="1">
          <mxGeometry x="110" y="118" width="20" height="40" as="geometry" />
        </mxCell>
        <mxCell id="MDjKrCd_UHIQp9SryKAu-34" style="edgeStyle=orthogonalEdgeStyle;rounded=0;orthogonalLoop=1;jettySize=auto;html=1;entryX=0.478;entryY=1;entryDx=0;entryDy=0;entryPerimeter=0;fontSize=14;" edge="1" parent="1" source="MDjKrCd_UHIQp9SryKAu-6" target="MDjKrCd_UHIQp9SryKAu-18">
          <mxGeometry relative="1" as="geometry" />
        </mxCell>
        <mxCell id="MDjKrCd_UHIQp9SryKAu-41" style="edgeStyle=orthogonalEdgeStyle;rounded=0;orthogonalLoop=1;jettySize=auto;html=1;fontSize=14;" edge="1" parent="1" source="MDjKrCd_UHIQp9SryKAu-6">
          <mxGeometry relative="1" as="geometry">
            <mxPoint x="351" y="220" as="targetPoint" />
          </mxGeometry>
        </mxCell>
        <mxCell id="MDjKrCd_UHIQp9SryKAu-6" value="Development Team&lt;br&gt;" style="shape=umlActor;verticalLabelPosition=bottom;verticalAlign=top;html=1;outlineConnect=0;" vertex="1" parent="1">
          <mxGeometry x="341" y="118" width="20" height="40" as="geometry" />
        </mxCell>
        <mxCell id="MDjKrCd_UHIQp9SryKAu-25" style="edgeStyle=orthogonalEdgeStyle;rounded=0;orthogonalLoop=1;jettySize=auto;html=1;entryX=0.921;entryY=1;entryDx=0;entryDy=0;entryPerimeter=0;fontSize=20;" edge="1" parent="1" source="MDjKrCd_UHIQp9SryKAu-7" target="MDjKrCd_UHIQp9SryKAu-18">
          <mxGeometry relative="1" as="geometry" />
        </mxCell>
        <mxCell id="MDjKrCd_UHIQp9SryKAu-47" style="edgeStyle=orthogonalEdgeStyle;rounded=0;orthogonalLoop=1;jettySize=auto;html=1;entryX=0.552;entryY=0.033;entryDx=0;entryDy=0;entryPerimeter=0;fontFamily=Lucida Console;fontSize=14;" edge="1" parent="1" source="MDjKrCd_UHIQp9SryKAu-7" target="MDjKrCd_UHIQp9SryKAu-42">
          <mxGeometry relative="1" as="geometry" />
        </mxCell>
        <mxCell id="MDjKrCd_UHIQp9SryKAu-7" value="QA Team" style="shape=umlActor;verticalLabelPosition=bottom;verticalAlign=top;html=1;outlineConnect=0;" vertex="1" parent="1">
          <mxGeometry x="620" y="118" width="20" height="40" as="geometry" />
        </mxCell>
        <mxCell id="MDjKrCd_UHIQp9SryKAu-18" value="&lt;b&gt;&lt;font style=&quot;font-size: 20px ; background-color: rgb(255 , 143 , 15)&quot;&gt;Agile Development Process&lt;/font&gt;&lt;/b&gt;" style="rounded=0;whiteSpace=wrap;html=1;fillColor=#FFB914;" vertex="1" parent="1">
          <mxGeometry x="50" y="10" width="630" height="70" as="geometry" />
        </mxCell>
        <mxCell id="MDjKrCd_UHIQp9SryKAu-39" value="" style="group" vertex="1" connectable="0" parent="1">
          <mxGeometry x="60" y="220" width="120" height="74" as="geometry" />
        </mxCell>
        <mxCell id="MDjKrCd_UHIQp9SryKAu-30" value="&lt;font style=&quot;font-size: 14px&quot;&gt;Write Epic/Story in Jira&lt;/font&gt;" style="rounded=0;whiteSpace=wrap;html=1;labelBackgroundColor=#FFFFFF;fontSize=15;fillColor=#FFFFFF;" vertex="1" parent="MDjKrCd_UHIQp9SryKAu-39">
          <mxGeometry width="120" height="60" as="geometry" />
        </mxCell>
        <mxCell id="MDjKrCd_UHIQp9SryKAu-27" value="" style="image;image=img/lib/atlassian/Jira_Software_Logo.svg;labelBackgroundColor=#FF8F0F;fontSize=20;fillColor=#FFB914;" vertex="1" parent="MDjKrCd_UHIQp9SryKAu-39">
          <mxGeometry y="48" width="30" height="26" as="geometry" />
        </mxCell>
        <mxCell id="MDjKrCd_UHIQp9SryKAu-28" value="" style="image;image=img/lib/atlassian/Jira_Logo.svg;labelBackgroundColor=#FFFFFF;fontSize=15;fillColor=#FFFFFF;" vertex="1" parent="MDjKrCd_UHIQp9SryKAu-39">
          <mxGeometry x="80" y="52" width="30" height="22" as="geometry" />
        </mxCell>
        <mxCell id="MDjKrCd_UHIQp9SryKAu-40" value="" style="group" vertex="1" connectable="0" parent="1">
          <mxGeometry x="300" y="220" width="120" height="80.10000000000002" as="geometry" />
        </mxCell>
        <mxCell id="MDjKrCd_UHIQp9SryKAu-33" value="Write Code, Junit and Push to Code Repository" style="rounded=0;whiteSpace=wrap;html=1;labelBackgroundColor=#FFFFFF;fontSize=14;fillColor=#FFFFFF;" vertex="1" parent="MDjKrCd_UHIQp9SryKAu-40">
          <mxGeometry width="120" height="60" as="geometry" />
        </mxCell>
        <mxCell id="MDjKrCd_UHIQp9SryKAu-37" value="" style="dashed=0;outlineConnect=0;html=1;align=center;labelPosition=center;verticalLabelPosition=bottom;verticalAlign=top;shape=mxgraph.weblogos.java;labelBackgroundColor=#FFFFFF;fontSize=14;fillColor=#FFFFFF;" vertex="1" parent="MDjKrCd_UHIQp9SryKAu-40">
          <mxGeometry y="40" width="24.4" height="40.1" as="geometry" />
        </mxCell>
        <mxCell id="MDjKrCd_UHIQp9SryKAu-43" value="" style="shape=image;html=1;verticalAlign=top;verticalLabelPosition=bottom;labelBackgroundColor=#ffffff;imageAspect=0;aspect=fixed;image=https://cdn2.iconfinder.com/data/icons/font-awesome/1792/git-128.png;fontSize=14;fillColor=#FFFFFF;" vertex="1" parent="MDjKrCd_UHIQp9SryKAu-40">
          <mxGeometry x="90" y="46.05000000000001" width="28" height="28" as="geometry" />
        </mxCell>
        <mxCell id="MDjKrCd_UHIQp9SryKAu-42" value="Write Manual Use-cases and Automation Test-cases" style="rounded=0;whiteSpace=wrap;html=1;labelBackgroundColor=#FFFFFF;fontSize=14;fillColor=#FFFFFF;" vertex="1" parent="1">
          <mxGeometry x="530" y="220" width="180" height="60" as="geometry" />
        </mxCell>
        <mxCell id="MDjKrCd_UHIQp9SryKAu-45" value="" style="shape=image;html=1;verticalAlign=top;verticalLabelPosition=bottom;labelBackgroundColor=#ffffff;imageAspect=0;aspect=fixed;image=https://cdn2.iconfinder.com/data/icons/font-awesome/1792/git-128.png;fontSize=14;fillColor=#FFFFFF;" vertex="1" parent="1">
          <mxGeometry x="690" y="264" width="20" height="20" as="geometry" />
        </mxCell>
        <mxCell id="MDjKrCd_UHIQp9SryKAu-46" value="&lt;b&gt;&lt;font style=&quot;font-size: 14px&quot; face=&quot;Lucida Console&quot;&gt;&lt;i style=&quot;background-color: rgb(18 , 208 , 255)&quot;&gt;TestRails&lt;/i&gt;&lt;/font&gt;&lt;/b&gt;" style="text;html=1;strokeColor=none;fillColor=none;align=center;verticalAlign=middle;whiteSpace=wrap;rounded=0;labelBackgroundColor=#FFFFFF;fontSize=14;" vertex="1" parent="1">
          <mxGeometry x="540" y="254" width="60" height="40" as="geometry" />
        </mxCell>
        <mxCell id="MDjKrCd_UHIQp9SryKAu-50" style="edgeStyle=orthogonalEdgeStyle;rounded=0;orthogonalLoop=1;jettySize=auto;html=1;entryX=0.133;entryY=0.711;entryDx=0;entryDy=0;entryPerimeter=0;fontFamily=Lucida Console;fontSize=14;" edge="1" parent="1" source="MDjKrCd_UHIQp9SryKAu-48" target="MDjKrCd_UHIQp9SryKAu-49">
          <mxGeometry relative="1" as="geometry" />
        </mxCell>
        <mxCell id="MDjKrCd_UHIQp9SryKAu-52" style="edgeStyle=orthogonalEdgeStyle;rounded=0;orthogonalLoop=1;jettySize=auto;html=1;fontFamily=Lucida Console;fontSize=8;" edge="1" parent="1" source="MDjKrCd_UHIQp9SryKAu-48">
          <mxGeometry relative="1" as="geometry">
            <mxPoint x="363.5" y="280" as="targetPoint" />
          </mxGeometry>
        </mxCell>
        <mxCell id="MDjKrCd_UHIQp9SryKAu-48" value="Jenkins Pipeline" style="shape=image;html=1;verticalAlign=top;verticalLabelPosition=bottom;labelBackgroundColor=#ffffff;imageAspect=0;aspect=fixed;image=https://cdn0.iconfinder.com/data/icons/font-awesome-brands-vol-1/512/jenkins-128.png;fontFamily=Lucida Console;fontSize=14;fillColor=#FFFFFF;" vertex="1" parent="1">
          <mxGeometry x="341" y="350" width="45" height="45" as="geometry" />
        </mxCell>
        <mxCell id="MDjKrCd_UHIQp9SryKAu-49" value="&lt;span style=&quot;background-color: rgb(255 , 255 , 255)&quot;&gt;AutoMation Testsuite&lt;/span&gt;" style="verticalLabelPosition=bottom;html=1;verticalAlign=top;align=center;strokeColor=none;fillColor=#00BEF2;shape=mxgraph.azure.automation;pointerEvents=1;labelBackgroundColor=#12D0FF;fontFamily=Lucida Console;fontSize=14;" vertex="1" parent="1">
          <mxGeometry x="600" y="340" width="50" height="45" as="geometry" />
        </mxCell>
        <mxCell id="MDjKrCd_UHIQp9SryKAu-51" value="&lt;font style=&quot;font-size: 10px&quot;&gt;&lt;b&gt;5. Jenkins Pipeline for&lt;font style=&quot;font-size: 10px&quot;&gt; &lt;/font&gt;Automation testsuite&lt;/b&gt;&lt;/font&gt;" style="text;html=1;align=center;verticalAlign=middle;resizable=0;points=[];autosize=1;strokeColor=none;fillColor=none;fontSize=14;fontFamily=Lucida Console;" vertex="1" parent="1">
          <mxGeometry x="365" y="314" width="290" height="20" as="geometry" />
        </mxCell>
        <mxCell id="MDjKrCd_UHIQp9SryKAu-53" value="&lt;font size=&quot;1&quot;&gt;&lt;b style=&quot;font-size: 11px&quot;&gt;1. Pull SCM&lt;/b&gt;&lt;/font&gt;" style="text;html=1;align=center;verticalAlign=middle;resizable=0;points=[];autosize=1;strokeColor=none;fillColor=none;fontSize=8;fontFamily=Lucida Console;" vertex="1" parent="1">
          <mxGeometry x="196" y="300" width="90" height="20" as="geometry" />
        </mxCell>
        <mxCell id="MDjKrCd_UHIQp9SryKAu-54" value="&lt;font size=&quot;1&quot;&gt;&lt;b style=&quot;font-size: 11px&quot;&gt;2. Gradle/Maven Build&lt;/b&gt;&lt;/font&gt;" style="text;html=1;align=center;verticalAlign=middle;resizable=0;points=[];autosize=1;strokeColor=none;fillColor=none;fontSize=8;fontFamily=Lucida Console;" vertex="1" parent="1">
          <mxGeometry x="196" y="320" width="160" height="20" as="geometry" />
        </mxCell>
        <mxCell id="MDjKrCd_UHIQp9SryKAu-55" value="&lt;font size=&quot;1&quot;&gt;&lt;b style=&quot;font-size: 11px&quot;&gt;3. Junit Test-cases&lt;/b&gt;&lt;/font&gt;" style="text;html=1;align=center;verticalAlign=middle;resizable=0;points=[];autosize=1;strokeColor=none;fillColor=none;fontSize=8;fontFamily=Lucida Console;" vertex="1" parent="1">
          <mxGeometry x="191" y="340" width="150" height="20" as="geometry" />
        </mxCell>
        <mxCell id="MDjKrCd_UHIQp9SryKAu-56" value="&lt;font size=&quot;1&quot;&gt;&lt;b style=&quot;font-size: 11px&quot;&gt;4. Sonar Report&lt;/b&gt;&lt;/font&gt;" style="text;html=1;align=center;verticalAlign=middle;resizable=0;points=[];autosize=1;strokeColor=none;fillColor=none;fontSize=8;fontFamily=Lucida Console;" vertex="1" parent="1">
          <mxGeometry x="365" y="294" width="120" height="20" as="geometry" />
        </mxCell>
        <mxCell id="MDjKrCd_UHIQp9SryKAu-57" value="&lt;font size=&quot;1&quot;&gt;&lt;b style=&quot;font-size: 11px&quot;&gt;6. Surefire/Jacacoo/allure Report&lt;/b&gt;&lt;/font&gt;" style="text;html=1;align=center;verticalAlign=middle;resizable=0;points=[];autosize=1;strokeColor=none;fillColor=none;fontSize=8;fontFamily=Lucida Console;" vertex="1" parent="1">
          <mxGeometry x="365" y="334" width="240" height="20" as="geometry" />
        </mxCell>
      </root>
    </mxGraphModel>
  </diagram>
</mxfile>
